<mxfile host="app.diagrams.net" modified="2023-07-24T01:08:41.907Z" agent="Mozilla/5.0 (Windows NT 10.0; Win64; x64) AppleWebKit/537.36 (KHTML, like Gecko) Chrome/114.0.0.0 Safari/537.36" version="21.6.2" etag="dg4b5cssi88lA23l4d0g" type="github">
  <diagram name="Page-1" id="D2lG6daBNiWNxPSUN6ID">
    <mxGraphModel>
      <root>
        <mxCell id="0" />
        <mxCell id="1" parent="0" />
      </root>
    </mxGraphModel>
  </diagram>
</mxfile>
